# xmcd CD database file
#
# Track frame offsets:
#	150
#	20977
#	40192
#
# Disc length: 810 seconds
#
# Revision: 3
# Processed by: cddbd v1.5.1PL0 Copyright (c) Steve Scherf et al.
# Submitted via: CDex 1.50Beta7
#
DISCID=21032803
DTITLE=Ｓｅｐｔｅｍｂｅｒ - 冬のソナタ
DYEAR=2004
DGENRE=Pop
TTITLE0=冬のソナタ〜最初から今まで〜
TTITLE1=Ｍｙ　Ｍｅｍｏｒｙ
TTITLE2=冬のソナタ〜最初から今まで〜（カラオケ）
EXTD=YEAR: 2004
EXTT0=
EXTT1=
EXTT2=
PLAYORDER=
